<svg width="35" height="46" viewBox="0 0 35 46" fill="none" xmlns="http://www.w3.org/2000/svg">
<path d="M8.62891 0H13.5701V2.06617H10.6951V4.13234H13.5701V6.1985H8.62891V0ZM14.5572 0H19.5002V1.79783H16.6252V2.15625H19.5002V6.28859H14.5572V4.40259H17.4322V4.04225H14.5572V0ZM20.4892 0H25.4285V1.79783H22.5535V2.15625H25.4285V6.28859H20.4892V4.40259H23.3643V4.04225H20.4892V0Z" fill="black"/>
<path fill-rule="evenodd" clip-rule="evenodd" d="M17.2328 46L3.92342 42.3047L0 9.04089H34.5L30.5785 42.3008L17.2328 46ZM7.75676 24.0982L8.12284 28.1769H22.2621L21.7887 33.4669L17.2385 34.6974H17.2347L12.6922 33.4707L12.4008 30.2182H8.30492L8.87609 36.6237L17.2328 38.9428L25.6029 36.6237L26.6225 25.1927L26.7222 24.0982L27.4582 15.8393H7.02267L7.39451 19.9199H22.9885L22.6167 24.0982H7.75676Z" fill="black"/>
</svg>
