<svg width="24" height="36" viewBox="0 0 24 36" fill="none" xmlns="http://www.w3.org/2000/svg">
<path d="M5.4 0C3.96783 0 2.59432 0.568927 1.58162 1.58162C0.568927 2.59432 0 3.96783 0 5.4C0 6.83217 0.568927 8.20568 1.58162 9.21837C2.59432 10.2311 3.96783 10.8 5.4 10.8H18C19.4322 10.8 20.8057 10.2311 21.8184 9.21837C22.8311 8.20568 23.4 6.83217 23.4 5.4C23.4 3.96783 22.8311 2.59432 21.8184 1.58162C20.8057 0.568927 19.4322 0 18 0H5.4Z" fill="black"/>
<path d="M18.0001 12.6C16.5679 12.6 15.1944 13.1689 14.1817 14.1816C13.169 15.1943 12.6001 16.5678 12.6001 18C12.6001 19.4321 13.169 20.8057 14.1817 21.8184C15.1944 22.831 16.5679 23.4 18.0001 23.4C19.4323 23.4 20.8058 22.831 21.8185 21.8184C22.8312 20.8057 23.4001 19.4321 23.4001 18C23.4001 16.5678 22.8312 15.1943 21.8185 14.1816C20.8058 13.1689 19.4323 12.6 18.0001 12.6V12.6Z" fill="black"/>
<path d="M0 18C0 16.5678 0.568927 15.1943 1.58162 14.1816C2.59432 13.1689 3.96783 12.6 5.4 12.6H10.8V23.4H5.4C3.96783 23.4 2.59432 22.831 1.58162 21.8184C0.568927 20.8057 0 19.4321 0 18Z" fill="black"/>
<path d="M5.4 25.2C4.33198 25.2 3.28795 25.5167 2.39992 26.11C1.5119 26.7034 0.819766 27.5467 0.411053 28.5335C0.00233974 29.5202 -0.104598 30.6059 0.103762 31.6534C0.312122 32.7009 0.826422 33.6631 1.58163 34.4183C2.33683 35.1735 3.29902 35.6878 4.34651 35.8962C5.39401 36.1046 6.47977 35.9976 7.46649 35.5889C8.45321 35.1802 9.29658 34.4881 9.88994 33.6C10.4833 32.712 10.8 31.668 10.8 30.6V25.2H5.4Z" fill="black"/>
</svg>
