<svg width="33" height="46" viewBox="0 0 33 46" fill="none" xmlns="http://www.w3.org/2000/svg">
<path d="M18.63 3.45L20.24 5.98L21.85 3.45V6.9H24.15V0H21.85L20.24 2.53L18.86 0H16.33V6.9H18.63V3.45ZM30.82 6.9V4.6H27.6V0H25.3V6.9H30.82ZM11.04 6.9H13.34V2.3H15.41V0H8.97V2.3H11.04V6.9ZM3.68 4.6H5.75V6.9H8.05V0H5.75V2.3H3.68V0H1.38V6.9H3.68V4.6ZM0 9.2L2.76 42.32L16.1 46L29.44 42.32L32.2 9.2H0ZM25.99 19.78H10.35L10.81 23.92H25.53L24.38 36.57L16.1 38.87L7.82 36.57L7.13 29.9H11.27L11.5 33.35L16.1 34.5L20.7 33.35L21.16 28.06H6.9L5.75 15.87H26.45L25.99 19.78Z" fill="black"/>
</svg>
