<svg width="42" height="44" viewBox="0 0 42 44" fill="none" xmlns="http://www.w3.org/2000/svg">
<path d="M14.9995 27.9601L15.069 27.9939L15.1928 28.0536C15.3507 28.1288 15.5101 28.2033 15.6709 28.2749L15.7721 28.3199C15.9566 28.4008 16.1423 28.4778 16.3301 28.5519L16.4661 28.6052C16.6396 28.6728 16.8159 28.7383 16.9925 28.8006L17.0587 28.8232C17.2527 28.8909 17.4484 28.9539 17.6459 29.0154L17.7881 29.0575C17.9888 29.1183 18.1871 29.1906 18.3943 29.2291C31.5468 31.6272 35.3669 21.3252 35.3669 21.3252C32.1581 25.5054 26.4627 26.6083 21.0663 25.3806C20.8619 25.3345 20.6633 25.2705 20.464 25.2115L20.3139 25.1661C20.1196 25.1065 19.9262 25.0436 19.7339 24.9776L19.6544 24.9488C19.483 24.8881 19.3126 24.8249 19.1431 24.7592L18.9999 24.7031C18.8145 24.6301 18.6304 24.5536 18.448 24.4735L18.3375 24.4246C18.1815 24.3542 18.0263 24.282 17.8719 24.208L17.737 24.1432C17.6161 24.0842 17.4963 24.0212 17.3768 23.9597L17.1365 23.8338C16.9912 23.7557 16.8474 23.6749 16.705 23.5916L16.5593 23.5103C16.3701 23.3983 16.1826 23.2834 15.9969 23.1656L15.8455 23.0649C15.7107 22.9784 15.5773 22.8897 15.4453 22.799L15.3165 22.7083C15.1892 22.6183 15.0632 22.5273 14.9384 22.4348L14.7707 22.3078C14.6559 22.2205 14.5422 22.1317 14.4296 22.0416L14.2774 21.9192C14.1342 21.8017 13.9924 21.6823 13.8521 21.5612L13.8057 21.522C13.6542 21.3894 13.505 21.2542 13.3581 21.1165L13.2322 20.9952C13.1231 20.892 13.0163 20.7876 12.9109 20.6808L12.7849 20.5548C12.6514 20.4181 12.52 20.2791 12.3909 20.1382L12.3715 20.1173C12.2354 19.9682 12.1021 19.8166 11.9718 19.6625L11.867 19.538C11.7699 19.4211 11.6735 19.3023 11.5796 19.1825L11.4741 19.0515C11.3613 18.9057 11.2506 18.7583 11.142 18.6093C8.14626 14.5226 7.06971 8.88621 9.46424 4.25726L7.34172 6.94936C4.62193 10.858 4.96087 15.9435 7.03805 20.0971L7.19024 20.3926L7.28775 20.5797L7.3482 20.6872L7.4565 20.8812C7.52091 20.9949 7.58675 21.1079 7.6544 21.2208L7.76774 21.4076C7.84258 21.5285 7.91922 21.6479 7.99802 21.7674L8.09588 21.9192C8.20419 22.0804 8.31501 22.2416 8.42907 22.3999L8.43878 22.4125L8.49491 22.4884C8.59386 22.6248 8.69569 22.7594 8.79859 22.8925L8.91301 23.0379C9.00476 23.1534 9.09867 23.2685 9.19366 23.3829L9.30089 23.5107C9.42862 23.6614 9.55887 23.8111 9.692 23.9575L9.69991 23.9658L9.71503 23.9824C9.84456 24.1241 9.97769 24.2623 10.1123 24.4012L10.2396 24.5296C10.344 24.6347 10.4498 24.738 10.557 24.8409L10.6869 24.9643C10.8297 25.0989 10.974 25.2309 11.1215 25.3604L11.1287 25.3658L11.2043 25.4306C11.3342 25.5429 11.4666 25.6548 11.5997 25.7645L11.7634 25.8948C11.8721 25.9818 11.9822 26.0678 12.093 26.1524L12.269 26.2862C12.3913 26.3762 12.5143 26.4647 12.6385 26.5514L12.7734 26.6471L12.8105 26.6734C12.9285 26.7547 13.049 26.8324 13.1696 26.9105L13.325 27.0141C13.5096 27.1311 13.6974 27.2466 13.887 27.3581L14.0425 27.4459C14.1821 27.5261 14.322 27.6049 14.4641 27.6819L14.6973 27.8028L14.9995 27.9601ZM16.3283 14.7209C16.623 15.1433 16.9494 15.6456 17.3405 15.9852C17.4822 16.1414 17.6305 16.2932 17.7816 16.4433L17.8982 16.5577C18.0453 16.7002 18.1947 16.8402 18.3487 16.9765L18.3674 16.9924L18.3717 16.997C18.5426 17.1467 18.7189 17.2906 18.8981 17.4324L19.0179 17.526C19.1978 17.6638 19.3809 17.799 19.5688 17.9282L19.585 17.9401L19.8361 18.1056L19.9556 18.1848C20.0898 18.2704 20.2254 18.3546 20.3639 18.4345L20.4215 18.4679C20.5406 18.5367 20.6615 18.6043 20.7824 18.6698L20.9105 18.7371L21.1631 18.8677L21.2012 18.8849C21.3746 18.9702 21.5495 19.0523 21.728 19.1303L21.8442 19.1782C21.9867 19.2386 22.131 19.298 22.2756 19.3534L22.4606 19.4211C22.5922 19.47 22.7239 19.5146 22.8571 19.5589L23.0366 19.6164C23.2259 19.6751 23.4126 19.7492 23.6098 19.782C33.7643 21.4648 36.1088 13.6458 36.1088 13.6458C33.9953 16.6894 29.9028 18.1412 25.5355 17.0078C25.3425 16.9571 25.1508 16.9017 24.9605 16.8416L24.7874 16.7858C24.6525 16.7423 24.5183 16.6959 24.3852 16.6473L24.2038 16.5797C24.0585 16.5238 23.9141 16.4657 23.7706 16.4051L23.654 16.3555C23.4755 16.2778 23.2989 16.1956 23.1244 16.109L22.8585 15.9737L22.7052 15.8949C22.5922 15.8338 22.48 15.7697 22.3692 15.7053L22.2889 15.6596C22.1516 15.5795 22.0158 15.4968 21.8816 15.4117L21.7589 15.3293L21.4955 15.1552C21.3093 15.026 21.1264 14.8922 20.9468 14.754L20.8234 14.6565C18.9118 13.1478 17.3966 11.0846 16.6759 8.74552C15.921 6.32041 16.0837 3.59737 17.3916 1.38778L15.7847 3.65674C13.8179 6.48664 13.9248 10.2758 15.459 13.269C15.7156 13.7721 16.0061 14.2571 16.3283 14.7209ZM27.0316 11.2196L27.2838 11.307L27.395 11.3423C27.5148 11.3797 27.6332 11.4236 27.7566 11.4466C33.3635 12.53 34.8848 8.56922 35.2895 7.98633C33.9572 9.90447 31.7184 10.3647 28.9713 9.69794C28.7464 9.6407 28.5245 9.57225 28.3064 9.49285C28.0379 9.39742 27.7745 9.28813 27.5173 9.16542C27.0291 8.93056 26.5656 8.64768 26.1335 8.32095C23.6753 6.45534 22.1482 2.8979 23.7523 0L22.8844 1.19601C21.7251 2.90258 21.611 5.02186 22.4156 6.90582C23.264 8.90636 25.0026 10.4751 27.0316 11.2196ZM21.6193 34.1758H20.0988C20.0557 34.1774 20.0144 34.1929 19.9809 34.22C19.9474 34.247 19.9235 34.2841 19.9127 34.3258L19.373 36.8229L18.8333 39.32C18.8227 39.3617 18.7989 39.3988 18.7654 39.4258C18.732 39.4529 18.6906 39.4684 18.6477 39.47H17.5715C16.5068 39.47 16.6298 38.7335 16.8479 37.7246L16.8544 37.694L16.8781 37.5666L16.8824 37.5429L16.931 37.2838L16.9832 37.0064L17.0386 36.7239L17.284 35.5251L17.5297 34.3262C17.5344 34.3079 17.5347 34.2887 17.5307 34.2702C17.5266 34.2518 17.5183 34.2345 17.5064 34.2199C17.4944 34.2052 17.4792 34.1935 17.462 34.1858C17.4447 34.1781 17.4259 34.1745 17.407 34.1754H15.8465C15.8036 34.177 15.7623 34.1925 15.7289 34.2196C15.6955 34.2468 15.6719 34.284 15.6616 34.3258L15.3259 35.9176L14.9906 37.5098L14.9898 37.5119L14.9589 37.6602C14.5725 39.4243 14.6746 41.1071 16.7752 41.16L16.8364 41.1611H20.1333C20.1763 41.1595 20.2176 41.144 20.2511 41.1169C20.2845 41.0899 20.3084 41.0528 20.319 41.0111L21.0299 37.6688L21.7409 34.3262C21.7586 34.2434 21.7039 34.1761 21.6193 34.1758ZM5.33579 34.1581H3.66627C3.62314 34.1598 3.58168 34.1752 3.54795 34.2022C3.51422 34.2291 3.48999 34.2661 3.47881 34.3078L3.3205 35.0066L3.16218 35.7053C3.14383 35.7877 3.19744 35.855 3.282 35.855H4.96446C5.00755 35.8534 5.04897 35.8379 5.08256 35.8109C5.11614 35.7839 5.1401 35.7467 5.15085 35.705L5.30376 35.0066L5.45668 34.3082C5.47431 34.2258 5.42034 34.1581 5.33579 34.1581ZM4.85148 36.3328H3.16866C3.12554 36.3346 3.08411 36.35 3.05039 36.3769C3.01667 36.4039 2.99243 36.4408 2.9812 36.4825L2.7448 37.5295L2.50877 38.5762L2.44292 38.8763L2.21588 39.9449L1.9892 41.0139C1.97157 41.0963 1.93523 41.2295 1.90824 41.3093C1.90824 41.3093 1.59377 42.2448 1.06521 42.2341L0.999006 42.2326L0.541689 42.2243C0.498728 42.2254 0.456867 42.2401 0.422929 42.2665C0.388991 42.2929 0.364406 42.3294 0.352789 42.3708L0.178281 43.1044L0.00413359 43.8377C-0.0156559 43.9198 0.0375959 43.9874 0.121431 43.9888C0.421153 43.9924 1.09256 44 1.49878 44C2.81892 44 3.51515 43.2685 3.96096 41.1636L4.48304 38.7479L4.97274 36.4821C4.99037 36.4005 4.93568 36.3328 4.85148 36.3328ZM35.8372 35.7665L35.7674 35.4783L35.6987 35.1832L35.6638 35.0343C35.527 34.5028 35.1258 34.1966 34.2544 34.1966L32.8979 34.1952L31.6486 34.1934H30.2429C30.1999 34.195 30.1586 34.2105 30.1252 34.2375C30.0918 34.2646 30.068 34.3017 30.0576 34.3434L29.9953 34.637L29.9219 34.9839L29.9014 35.0814L29.2685 38.0462L28.6676 40.8607C28.6496 40.9434 28.6439 41.0449 28.6539 41.0859C28.664 41.1273 28.8263 41.1611 28.9105 41.1611H30.1785C30.263 41.1611 30.3699 41.146 30.4159 41.1273C30.462 41.1086 30.53 40.9427 30.5469 40.8603L30.7721 39.7453L30.9977 38.6298L30.9981 38.628L31.0283 38.4794L31.3018 37.1985L31.5432 36.0673C31.5539 36.0257 31.5776 35.9886 31.611 35.9616C31.6444 35.9345 31.6856 35.919 31.7285 35.9172L35.7184 35.9154C35.803 35.9162 35.8562 35.8489 35.8372 35.7665ZM40.9735 33.1615L40.6662 33.1625H39.3892C39.3424 33.1652 39.2968 33.1779 39.2553 33.1998C39.2139 33.2217 39.1777 33.2523 39.1492 33.2896L36.3251 37.4266C36.2776 37.4964 36.2233 37.4864 36.2045 37.4043L35.9966 36.4929C35.9854 36.4512 35.9611 36.4141 35.9273 36.3872C35.8935 36.3603 35.8519 36.3449 35.8088 36.3433H33.9935C33.909 36.3433 33.8589 36.4095 33.882 36.4904L34.6955 39.3405C34.7185 39.4218 34.7203 39.5549 34.6995 39.637L34.345 41.0161C34.3238 41.0981 34.3756 41.1647 34.4602 41.1647H36.2546C36.298 41.1629 36.3397 41.1477 36.374 41.121C36.4084 41.0944 36.4335 41.0577 36.446 41.0161L36.8007 39.637C36.8288 39.5397 36.873 39.4479 36.9314 39.3653L41.516 33.2806C41.5671 33.2129 41.5394 33.1579 41.4552 33.1586L40.9735 33.1615ZM26.5501 36.7304V36.729C26.5439 36.7724 26.5224 36.8122 26.4895 36.8413C26.4566 36.8704 26.4145 36.8868 26.3706 36.8876H24.0689C23.989 36.8876 23.9487 36.8337 23.9606 36.7668L23.9628 36.7614L23.9613 36.7621L23.9624 36.7545L23.9728 36.7153C24.1927 36.131 24.6403 35.7474 25.4819 35.7474C26.4296 35.7471 26.6145 36.2098 26.5501 36.7304ZM25.8748 34.0736C22.9204 34.0736 22.2202 35.8669 21.8273 37.6771C21.4347 39.5222 21.4682 41.2467 24.5259 41.2467H24.8965L24.9886 41.2464H25.0102L25.3772 41.2453H25.3836C26.1911 41.2421 27.001 41.2359 27.3288 41.2334C27.3715 41.2313 27.4124 41.2154 27.4454 41.1882C27.4783 41.161 27.5017 41.1238 27.5119 41.0823L27.6357 40.4775L27.6598 40.3598L27.8073 39.638C27.812 39.6197 27.8124 39.6006 27.8083 39.5821C27.8042 39.5637 27.7959 39.5465 27.784 39.5318C27.772 39.5172 27.7568 39.5056 27.7396 39.4979C27.7223 39.4902 27.7035 39.4867 27.6846 39.4876H24.936C23.8426 39.4876 23.518 39.1973 23.6378 38.3431H28.0315L28.0311 38.3434L28.034 38.3431C28.0688 38.3416 28.1023 38.3301 28.1307 38.31C28.1591 38.2899 28.1811 38.262 28.1941 38.2297L28.2045 38.1916L28.2042 38.192C28.8565 35.7312 28.6694 34.0739 25.8748 34.0736ZM11.9106 36.7211L11.8688 36.8682L11.5371 38.0444L11.2054 39.2199C11.1918 39.2616 11.1658 39.2981 11.1309 39.3245C11.0959 39.351 11.0538 39.3661 11.01 39.3678H9.25411C7.9221 39.3678 7.59755 38.3258 7.9221 36.7894C8.24628 35.2178 8.88207 34.2409 10.1932 34.1419C11.9851 34.0067 12.3434 35.2667 11.9106 36.7211ZM13.1152 39.2775C13.1152 39.2775 13.9431 37.2669 14.131 36.1061C14.3875 34.5521 13.6092 32.2976 10.6034 32.2976C7.61482 32.2976 6.31663 34.4496 5.82153 36.7894C5.32643 39.1462 5.97517 41.2126 8.94683 41.1956L11.2914 41.187L13.4822 41.1791C13.5257 41.1769 13.5674 41.1615 13.6017 41.1348C13.6361 41.1082 13.6615 41.0717 13.6744 41.0301L14.0561 39.5743C14.0774 39.4923 14.0259 39.4254 13.9413 39.4247L13.5754 39.4225L13.2095 39.4203C13.1379 39.42 13.0969 39.3732 13.1055 39.3117L13.1152 39.2775ZM27.9106 37.9315C27.9106 37.9447 27.908 37.9578 27.903 37.97C27.8979 37.9823 27.8905 37.9934 27.8812 38.0027C27.8719 38.0121 27.8608 38.0196 27.8486 38.0246C27.8363 38.0297 27.8232 38.0324 27.81 38.0324C27.7968 38.0324 27.7837 38.0298 27.7714 38.0248C27.7592 38.0197 27.7481 38.0123 27.7387 38.003C27.7294 37.9937 27.7219 37.9826 27.7168 37.9704C27.7117 37.9581 27.7091 37.945 27.7091 37.9318C27.709 37.9051 27.7196 37.8795 27.7385 37.8605C27.7573 37.8416 27.7829 37.8309 27.8097 37.8309C27.8364 37.8308 27.862 37.8414 27.8809 37.8603C27.8999 37.8791 27.9105 37.9047 27.9106 37.9315Z" fill="black"/>
</svg>
