<svg width="34" height="34" viewBox="0 0 34 34" fill="none" xmlns="http://www.w3.org/2000/svg">
<path d="M5.66667 0C4.16377 0 2.72243 0.597022 1.65973 1.65973C0.597022 2.72243 0 4.16377 0 5.66667V28.3333C0 29.8362 0.597022 31.2776 1.65973 32.3403C2.72243 33.403 4.16377 34 5.66667 34H28.3333C29.8362 34 31.2776 33.403 32.3403 32.3403C33.403 31.2776 34 29.8362 34 28.3333V5.66667C34 4.16377 33.403 2.72243 32.3403 1.65973C31.2776 0.597022 29.8362 0 28.3333 0H5.66667ZM19.5198 24.6594C20.8798 25.755 22.236 26.2933 23.5922 26.2801C24.4233 26.2801 25.0618 26.129 25.5038 25.823C25.7102 25.689 25.8781 25.5036 25.991 25.285C26.104 25.0664 26.158 24.8222 26.1479 24.5763C26.1506 24.3082 26.0945 24.0427 25.9836 23.7986C25.8726 23.5545 25.7095 23.3377 25.5057 23.1634C25.0618 22.7762 24.2231 22.389 22.9897 21.9999C21.5088 21.5711 20.3641 21.0177 19.5613 20.3377C18.7718 19.6577 18.3713 18.7094 18.3562 17.4911C18.3562 16.3408 18.8549 15.3793 19.8522 14.603C20.8231 13.8286 22.0622 13.4394 23.5733 13.4394C25.6776 13.4394 27.3681 13.9513 28.6412 14.977L27.1868 17.2418C26.6631 16.8345 26.0623 16.5376 25.4207 16.3691C24.844 16.1762 24.2417 16.0712 23.6338 16.0574C22.916 16.0574 22.3399 16.1897 21.9092 16.4522C21.4804 16.7167 21.267 17.0623 21.267 17.4911C21.267 17.9633 21.5296 18.3638 22.0547 18.6962C22.5836 19.0154 23.4827 19.3687 24.7558 19.7559C26.2933 20.213 27.3889 20.8231 28.0387 21.5843C28.6903 22.3456 29.0152 23.3164 29.0152 24.4932C29.0152 25.6983 28.5524 26.7372 27.6231 27.6099C26.7089 28.4693 25.3791 28.9189 23.6338 28.9604C21.3482 28.9604 19.4367 28.2748 17.8991 26.9034L19.5198 24.6594ZM9.07422 25.8646C9.51811 26.1422 10.0508 26.2801 10.6741 26.2801C11.3258 26.2801 11.8641 26.0931 12.2948 25.7191C12.7236 25.3319 12.9389 24.6594 12.9389 23.7037V13.6888H15.7439V24.2439C15.7023 25.8778 15.232 27.0564 14.331 27.7761C13.8394 28.1941 13.2663 28.5055 12.648 28.6903C12.0753 28.8648 11.4805 28.9558 10.8819 28.9604C9.843 28.9604 8.92122 28.781 8.11844 28.4202C7.259 28.033 6.53933 27.3473 5.95756 26.3632L7.91067 24.7633C8.26956 25.2488 8.65867 25.6152 9.07422 25.8646Z" fill="black"/>
</svg>
