<svg width="30" height="30" viewBox="0 0 30 30" fill="none" xmlns="http://www.w3.org/2000/svg">
<path d="M9.37597 18.2657L18.2624 9.37922C18.4174 9.22423 18.6014 9.10129 18.8039 9.01741C19.0064 8.93353 19.2234 8.89036 19.4426 8.89036C19.6618 8.89036 19.8789 8.93353 20.0814 9.01741C20.2839 9.10129 20.4679 9.22423 20.6229 9.37922C20.7779 9.53421 20.9008 9.71821 20.9847 9.92072C21.0686 10.1232 21.1117 10.3403 21.1117 10.5595C21.1117 10.7786 21.0686 10.9957 20.9847 11.1982C20.9008 11.4007 20.7779 11.5847 20.6229 11.7397L11.7364 20.6261C11.4234 20.9391 10.9989 21.115 10.5562 21.115C10.1135 21.115 9.68899 20.9391 9.37597 20.6261C9.06296 20.3131 8.88711 19.8886 8.88711 19.4459C8.88711 19.0032 9.06296 18.5787 9.37597 18.2657ZM27.5654 2.4367C26.0015 0.876318 23.8825 0 21.6733 0C19.4641 0 17.3451 0.876318 15.7811 2.4367L11.599 6.61471C11.286 6.92773 11.1101 7.35227 11.1101 7.79494C11.1101 8.23761 11.286 8.66215 11.599 8.97517C11.912 9.28819 12.3365 9.46404 12.7792 9.46404C13.2219 9.46404 13.6464 9.28819 13.9594 8.97517L18.1347 4.80132C18.5989 4.33699 19.1501 3.96865 19.7566 3.71732C20.3632 3.46599 21.0134 3.3366 21.67 3.33653C22.3266 3.33647 22.9768 3.46573 23.5834 3.71694C24.1901 3.96815 24.7413 4.33639 25.2056 4.80063C25.67 5.26487 26.0383 5.81602 26.2896 6.42262C26.541 7.02921 26.6703 7.67937 26.6704 8.33597C26.6705 8.99257 26.5412 9.64275 26.29 10.2494C26.0388 10.856 25.6706 11.4073 25.2063 11.8716L21.0255 16.044C20.7125 16.3571 20.5367 16.7816 20.5367 17.2243C20.5367 17.6669 20.7125 18.0915 21.0255 18.4045C21.3385 18.7175 21.7631 18.8934 22.2058 18.8934C22.6484 18.8934 23.073 18.7175 23.386 18.4045L27.5626 14.2307C29.1238 12.6658 30.0002 10.5454 29.9994 8.3349C29.9986 6.12445 29.1207 4.00463 27.5584 2.44087L27.5654 2.4367ZM16.0436 21.026L11.8683 25.2026C11.404 25.6669 10.8528 26.0351 10.2461 26.2863C9.6395 26.5375 8.98931 26.6668 8.33272 26.6667C7.67612 26.6667 7.02596 26.5373 6.41936 26.2859C5.81277 26.0346 5.26162 25.6663 4.79738 25.2019C3.8598 24.2642 3.33315 22.9924 3.33328 21.6663C3.33341 20.3402 3.86031 19.0685 4.79807 18.131L8.97192 13.9557C9.12691 13.8007 9.24985 13.6167 9.33373 13.4142C9.41761 13.2117 9.46079 12.9947 9.46079 12.7755C9.46079 12.5563 9.41761 12.3393 9.33373 12.1368C9.24985 11.9343 9.12691 11.7503 8.97192 11.5953C8.81693 11.4403 8.63293 11.3173 8.43043 11.2335C8.22792 11.1496 8.01088 11.1064 7.79169 11.1064C7.5725 11.1064 7.35546 11.1496 7.15295 11.2335C6.95045 11.3173 6.76645 11.4403 6.61146 11.5953L2.44039 15.7747C0.877705 17.3375 -0.000130183 19.4572 1.44808e-08 21.6673C0.000130212 23.8774 0.878215 25.9969 2.44109 27.5596C4.00396 29.1223 6.12359 30.0001 8.3337 30C10.5438 29.9999 12.6633 29.1218 14.226 27.5589L18.3999 23.3837C18.7129 23.0707 18.8887 22.6461 18.8887 22.2035C18.8887 21.7608 18.7129 21.3362 18.3999 21.0232C18.0869 20.7102 17.6623 20.5344 17.2196 20.5344C16.777 20.5344 16.3524 20.7102 16.0394 21.0232L16.0436 21.026Z" fill="white"/>
</svg>
