<svg width="50" height="44" viewBox="0 0 50 44" fill="none" xmlns="http://www.w3.org/2000/svg">
<path d="M24.7266 17.5904C22.2957 17.5904 20.316 19.5701 20.316 22.0011C20.316 24.432 22.2957 26.4117 24.7266 26.4117C27.1575 26.4117 29.1372 24.432 29.1372 22.0011C29.1372 19.5701 27.1575 17.5904 24.7266 17.5904ZM12.3788 30.7666L11.4051 30.5255C4.16025 28.6896 0 25.5833 0 21.9933C0 18.4033 4.1618 15.2971 11.4051 13.4611L12.3788 13.22L12.6523 14.1859C13.3872 16.7158 14.3269 19.1816 15.4619 21.5591L15.6705 21.9933L15.4619 22.4353C14.3245 24.8117 13.3848 27.2778 12.6523 29.8085L12.3788 30.7666ZM10.9554 15.7143C5.44913 17.2597 2.06931 19.6335 2.06931 21.9933C2.06931 24.3532 5.45067 26.7177 10.9554 28.2723C11.6302 26.1283 12.4449 24.0308 13.3941 21.9933C12.4435 19.9564 11.6289 17.8588 10.9554 15.7143ZM37.0744 30.7666L36.8009 29.8008C36.0672 27.273 35.1276 24.8096 33.9914 22.4353L33.7827 21.9933L33.9914 21.5513C35.1287 19.1749 36.0684 16.7089 36.8009 14.1782L37.0744 13.22L38.0481 13.4611C45.293 15.2971 49.4532 18.4033 49.4532 21.9933C49.4532 25.5833 45.2914 28.6896 38.0481 30.5255L37.0744 30.7666ZM36.0591 21.9933C37.0115 24.0294 37.8262 26.1272 38.4978 28.2723C44.0118 26.7192 47.3839 24.3532 47.3839 21.9933C47.3839 19.6335 44.0025 17.269 38.4978 15.7143C37.8214 17.8578 37.0068 19.9552 36.0591 21.9933ZM10.9384 15.7066L10.6649 14.7407C8.62804 7.56072 9.24775 2.40986 12.3633 0.614089C15.4217 -1.14923 20.3237 0.935534 25.4669 6.21621L26.1669 6.93328L25.4669 7.65035C23.6404 9.55063 21.9715 11.5963 20.4767 13.7671L20.1955 14.1612L19.7117 14.2014C17.0822 14.4089 14.4738 14.8291 11.912 15.4578L10.9384 15.7066ZM14.8499 2.04823C14.2951 2.04823 13.8036 2.16105 13.3925 2.40213C11.348 3.58592 10.9863 7.69053 12.3942 13.2277C14.5909 12.7364 16.8175 12.3894 19.0596 12.1892C20.3504 10.3508 21.7619 8.6001 23.2847 6.94874C20.0734 3.81773 17.0304 2.04823 14.8499 2.04823ZM34.6111 43.9985C34.6033 43.9985 34.6033 43.9985 34.6111 43.9985C31.6732 43.9985 27.8978 41.7932 23.9863 37.7689L23.2863 37.0518L23.9863 36.3348C25.8128 34.4345 27.4817 32.3888 28.9765 30.218L29.25 29.8239L29.7337 29.776C32.3667 29.5754 34.9782 29.1552 37.5412 28.5196L38.5148 28.2785L38.7883 29.2444C40.8252 36.4244 40.2055 41.5675 37.0899 43.3617C36.3366 43.7947 35.4797 44.0158 34.6111 43.9985ZM26.1669 37.0364C29.3783 40.1674 32.4212 41.9384 34.6018 41.9384H34.6095C35.1566 41.9384 35.648 41.8179 36.0591 41.5845C38.1037 40.4007 38.4746 36.2961 37.0574 30.7589C34.8611 31.2508 32.6344 31.5952 30.3921 31.7897C29.1013 33.6306 27.6898 35.3823 26.1669 37.0364ZM38.5148 15.7066L37.5412 15.4578C34.9764 14.8312 32.3656 14.411 29.7337 14.2014L29.25 14.1612L28.9765 13.7671C27.4817 11.5963 25.8128 9.55063 23.9863 7.65035L23.2863 6.93328L23.9863 6.21621C29.1295 0.935534 34.0315 -1.14923 37.0899 0.614089C40.2055 2.40831 40.8252 7.56072 38.7883 14.7407L38.5148 15.7066ZM30.3936 12.1892C32.6358 12.3889 34.8624 12.7358 37.059 13.2277C38.4761 7.69053 38.1052 3.58437 36.0607 2.40213C34.0238 1.22762 30.1927 3.02957 26.1685 6.95028C27.6872 8.60519 29.0985 10.3556 30.3936 12.1908V12.1892ZM14.8499 43.9985C13.9798 44.0139 13.119 43.7976 12.3633 43.3633C9.24775 41.5691 8.62804 36.4244 10.6649 29.2459L10.9384 28.2801L11.912 28.5211C14.2951 29.1254 16.9192 29.5427 19.7117 29.7776L20.1955 29.8255L20.469 30.2196C21.9638 32.3904 23.6327 34.436 25.4591 36.3363L26.1592 37.0534L25.4591 37.7704C21.5554 41.7947 17.78 44 14.8499 44V43.9985ZM12.3958 30.7589C10.9786 36.2961 11.3495 40.4023 13.3941 41.5845C15.4309 42.7436 19.2543 40.9571 23.2863 37.0364C21.7634 35.3823 20.3519 33.6291 19.0611 31.7882C16.8188 31.5942 14.592 31.2514 12.3958 30.7589ZM24.7266 32.054C23.0282 32.054 21.2896 31.9813 19.5433 31.8361L19.0596 31.7959L18.7783 31.3941C17.7919 29.9767 16.8654 28.5187 16.0012 27.0236C15.1352 25.5286 14.3325 23.9978 13.595 22.4353L13.3864 21.9933L13.595 21.5513C15.0725 18.4271 16.8062 15.4306 18.7783 12.5926L19.0596 12.1908L19.5433 12.1506C22.9927 11.8601 26.4605 11.8601 29.9099 12.1506L30.3936 12.1908L30.6749 12.5926C32.6496 15.429 34.3834 18.4257 35.8582 21.5513L36.0668 21.9933L35.8582 22.4353C34.3864 25.5625 32.6524 28.5595 30.6749 31.3941L30.3936 31.7959L29.9099 31.8361C28.1859 31.9803 26.4566 32.053 24.7266 32.054ZM20.2032 29.8162C23.2461 30.0496 26.2071 30.0496 29.2577 29.8162C30.9591 27.3249 32.4712 24.7094 33.7812 21.9918C32.4767 19.2697 30.9617 16.6536 29.25 14.1674C26.2389 13.934 23.2143 13.934 20.2032 14.1674C18.4903 16.6528 16.9752 19.269 15.672 21.9918C16.9824 24.7107 18.4971 27.3264 20.2032 29.8162Z" fill="black"/>
</svg>
