<svg width="24" height="20" viewBox="0 0 24 20" fill="none" xmlns="http://www.w3.org/2000/svg">
<path d="M24 9.98833C24 8.63477 23.7355 7.34345 23.2065 6.11435C22.6776 4.88526 21.9697 3.81953 21.0828 2.91715C20.196 2.01478 19.1303 1.30688 17.8856 0.793466C16.641 0.280047 15.3419 0.0155581 13.9883 0C12.6348 0 11.3434 0.264489 10.1144 0.793466C8.88526 1.32244 7.81952 2.03034 6.91715 2.91715C6.01478 3.80397 5.30688 4.8697 4.79346 6.11435C4.28005 7.359 4.01556 8.65033 4 9.98833H2.31972C1.96188 9.98833 1.65072 10.0895 1.38623 10.2917C1.12174 10.494 0.927265 10.7429 0.802799 11.0385C0.678335 11.3341 0.639439 11.6453 0.686113 11.972C0.732788 12.2987 0.888371 12.5865 1.15286 12.8355L4.49008 16.1727C4.8168 16.4994 5.20576 16.6628 5.65694 16.6628C6.10813 16.6628 6.50486 16.4994 6.84714 16.1727L10.1844 12.8355C10.4333 12.5865 10.5811 12.2987 10.6278 11.972C10.6744 11.6453 10.6433 11.3341 10.5344 11.0385C10.4255 10.7429 10.231 10.494 9.95099 10.2917C9.67095 10.0895 9.352 9.98833 8.99417 9.98833H7.33722C7.33722 8.79035 7.63283 7.67795 8.22404 6.65111C8.81525 5.62427 9.62427 4.81525 10.6511 4.22404C11.6779 3.63283 12.7904 3.33722 13.9883 3.33722C15.1863 3.33722 16.3065 3.63283 17.3489 4.22404C18.3913 4.81525 19.2003 5.62427 19.776 6.65111C20.3516 7.67795 20.6472 8.79035 20.6628 9.98833C20.6783 11.1863 20.3827 12.3065 19.776 13.3489C19.1692 14.3913 18.3602 15.2003 17.3489 15.776C16.3376 16.3516 15.2174 16.6472 13.9883 16.6628C13.1482 16.6628 12.3314 16.5072 11.5379 16.196L9.04084 18.6698C10.5655 19.5566 12.2147 20 13.9883 20C15.3574 20 16.6566 19.7355 17.8856 19.2065C19.1147 18.6776 20.1805 17.9697 21.0828 17.0828C21.9852 16.196 22.6931 15.1303 23.2065 13.8856C23.72 12.641 23.9844 11.3419 24 9.98833Z" fill="black"/>
</svg>
