<svg width="46" height="35" viewBox="0 0 46 35" fill="none" xmlns="http://www.w3.org/2000/svg">
<path d="M21.6931 26.082C21.6715 26.1251 21.65 26.1596 21.6931 26.082ZM39.5968 19.8295C38.1509 19.8295 36.725 20.1601 35.4285 20.7997C35.0045 19.9445 34.5661 19.1971 34.4942 18.6365C34.408 17.9825 34.3146 17.5944 34.4152 16.8182C34.5158 16.0421 34.9686 14.9425 34.9614 14.8634C34.9542 14.7844 34.8607 14.3891 33.9337 14.3819C33.0066 14.3747 32.2088 14.5616 32.1154 14.8059C31.9513 15.2524 31.824 15.7115 31.7345 16.1786C31.5692 17.0195 29.8817 20.0235 28.9259 21.5903C28.6097 20.9794 28.3438 20.4404 28.2863 20.0092C28.2 19.3552 28.1066 18.9671 28.2072 18.1909C28.3078 17.4147 28.7606 16.3152 28.7534 16.2361C28.7462 16.157 28.6528 15.7618 27.7271 15.7546C26.8015 15.7474 26.0023 15.9343 25.9089 16.1786C25.8155 16.423 25.7148 16.9979 25.528 17.5513C25.3411 18.1047 23.0917 23.1067 22.5038 24.4075C22.2019 25.0687 21.9432 25.6005 21.7564 25.9598C21.7276 26.0173 21.706 26.0533 21.6917 26.082C21.7132 26.0461 21.7276 26.0101 21.7276 26.0245C21.5695 26.3335 21.4761 26.506 21.4761 26.506V26.5132C21.3539 26.7432 21.2173 26.9516 21.1527 26.9516C21.1095 26.9516 21.0161 26.3479 21.1742 25.5214C21.512 23.7822 22.3097 21.08 22.3025 20.9866C22.2954 20.9363 22.4535 20.4691 21.7779 20.2176C21.1239 19.9804 20.8868 20.3757 20.8293 20.3757C20.7718 20.3757 20.7286 20.5194 20.7286 20.5194C20.7286 20.5194 21.4545 17.4722 19.3344 17.4722C18.012 17.4722 16.1722 18.924 15.2681 20.2391C14.7004 20.5482 13.4714 21.2165 12.1778 21.928L10.6901 22.7473C10.6542 22.7114 10.6254 22.6755 10.5895 22.6395C8.01664 19.8942 3.26761 17.9537 3.46884 14.2669C3.54071 12.923 4.00785 9.39427 12.6018 5.11094C19.6449 1.60379 25.275 2.56682 26.2452 4.70848C27.6395 7.76287 23.234 13.4476 15.9207 14.2669C13.1322 14.5759 11.6675 13.4979 11.301 13.0955C10.9201 12.6714 10.8626 12.6499 10.7189 12.7289C10.4817 12.8583 10.6326 13.232 10.7189 13.4548C10.9345 14.0226 11.8328 15.0287 13.3636 15.5318C14.7075 15.9702 17.9761 16.2145 21.9274 14.6837C26.3674 12.9733 29.8242 8.20845 28.8095 4.21978C27.7774 0.166429 21.0564 -1.16313 14.7018 1.09353C10.9144 2.43746 6.81932 4.55037 3.87417 7.30291C0.374205 10.5801 -0.184927 13.4332 0.04505 14.6263C0.864344 18.8593 6.69858 21.619 9.03285 23.6601L8.70945 23.8397C7.538 24.4219 3.09081 26.7504 1.97686 29.2083C0.719171 31.9967 2.18528 33.9947 3.14687 34.2678C6.15095 35.1014 9.22546 33.5994 10.8784 31.1343C12.5314 28.6692 12.3302 25.4496 11.5684 23.9835C11.5612 23.9619 11.5468 23.9475 11.5396 23.926C12.402 23.4152 13.2717 22.9168 14.1484 22.4311C13.8609 23.2073 13.6525 24.1416 13.5447 25.4927C13.4154 27.0738 14.0694 29.122 14.9174 29.9269C15.2911 30.2791 15.7424 30.2863 16.0242 30.2863C17.0159 30.2863 17.4615 29.467 17.9574 28.4896C18.5683 27.2966 19.1073 25.9095 19.1073 25.9095C19.1073 25.9095 18.4317 29.661 20.2787 29.661C20.9543 29.661 21.6299 28.7914 21.9317 28.3458V28.353C21.9317 28.353 21.9461 28.3243 21.982 28.2668C22.0539 28.159 22.0898 28.0943 22.0898 28.0943V28.0727C22.3629 27.6056 22.9594 26.5348 23.8578 24.7668C25.022 22.4814 26.1345 19.6283 26.1345 19.6283C26.2423 20.255 26.3918 20.8745 26.5801 21.4825C26.7814 22.1652 27.2054 22.9126 27.5432 23.6385C27.2701 24.0122 27.1048 24.2278 27.1048 24.2278C27.1048 24.2336 27.1076 24.2379 27.1119 24.2422C26.8963 24.5297 26.652 24.8387 26.4005 25.1405C25.482 26.2329 24.3882 27.4834 24.2444 27.8428C24.0719 28.2668 24.1151 28.583 24.4456 28.8274C24.69 29.0142 25.1212 29.043 25.574 29.007C26.4005 28.9495 26.9826 28.7483 27.2629 28.6189C27.7798 28.4337 28.2685 28.1773 28.7146 27.8571C29.613 27.196 30.1591 26.2473 30.1088 24.9968C30.0801 24.3069 29.8573 23.6169 29.5842 22.9701C29.6633 22.8551 29.7495 22.733 29.8286 22.6108C30.7638 21.2153 31.6065 19.76 32.3511 18.2541C32.4589 18.8808 32.607 19.5003 32.7967 20.1083C32.9692 20.6905 33.307 21.3301 33.616 21.9553C32.2793 23.0406 31.4528 24.2982 31.1667 25.1247C30.6349 26.6555 31.0517 27.3454 31.8351 27.5036C32.1873 27.5754 32.6903 27.4101 33.0641 27.252C33.6189 27.0666 34.1421 26.7978 34.615 26.4543C35.5133 25.7931 36.3829 24.866 36.324 23.6083C36.3024 23.0406 36.1443 22.4728 35.9359 21.9266C37.0642 21.4523 38.5303 21.1935 40.3989 21.4092C44.4005 21.8763 45.1839 24.3773 45.0329 25.4194C44.882 26.4615 44.0412 27.0436 43.7609 27.2161C43.4806 27.3886 43.3943 27.4532 43.4159 27.5826C43.4518 27.7695 43.5812 27.7623 43.8184 27.7192C44.149 27.6617 45.9169 26.8711 45.996 24.9379C46.111 22.4944 43.7609 19.8065 39.5997 19.8281L39.5968 19.8295ZM8.75257 30.2288C7.4302 31.6733 5.57744 32.2195 4.77971 31.7596C3.92448 31.2622 4.26226 29.1364 5.89223 27.597C6.884 26.6627 8.16325 25.8003 9.01129 25.2685C9.20534 25.1535 9.48562 24.981 9.83059 24.7726C9.85862 24.7546 9.88739 24.7378 9.91683 24.7223C9.98151 24.6791 10.0534 24.6432 10.1252 24.6001C10.7203 26.7849 10.1468 28.7124 8.75257 30.2288ZM18.4087 23.6601C17.9488 24.7884 16.98 27.6631 16.3893 27.5122C15.8862 27.3828 15.5771 25.1908 16.2886 23.0348C16.648 21.9496 17.4098 20.656 17.8625 20.1529C18.5884 19.3408 19.3861 19.0821 19.573 19.4055C19.8245 19.8295 18.6962 22.9558 18.4087 23.6601ZM26.3861 27.4691C26.192 27.5697 26.0124 27.6344 25.9261 27.584C25.8614 27.5481 26.0052 27.4116 26.0052 27.4116C26.0052 27.4116 27.0041 26.3407 27.3994 25.852C27.6294 25.5646 27.8953 25.2268 28.1828 24.8531C28.1828 24.889 28.19 24.9249 28.19 24.9681C28.1813 26.2545 26.9467 27.1241 26.3861 27.4691ZM32.538 26.0676C32.3942 25.967 32.4158 25.6292 32.8973 24.58C33.0842 24.1703 33.5154 23.4804 34.2628 22.8192C34.3476 23.0693 34.3936 23.3309 34.3994 23.5954C34.3922 25.2124 33.2351 25.8161 32.538 26.0676Z" fill="black"/>
</svg>
