<svg width="34" height="34" viewBox="0 0 34 34" fill="none" xmlns="http://www.w3.org/2000/svg">
<path fill-rule="evenodd" clip-rule="evenodd" d="M31.3438 0H2.65625C1.1892 0 0 1.1892 0 2.65625V31.3438C0 32.8108 1.1892 34 2.65625 34H31.3438C32.8108 34 34 32.8108 34 31.3438V2.65625C34 1.1892 32.8108 0 31.3438 0ZM19.9907 30.2939V26.6256C20.6561 27.1835 21.3788 27.6019 22.1591 27.8808C22.9392 28.1598 23.727 28.2993 24.5224 28.2993C24.9889 28.2993 25.3963 28.2572 25.7442 28.1731C26.0922 28.089 26.3829 27.9726 26.6162 27.8236C26.8494 27.6745 27.0235 27.4987 27.1381 27.2963C27.2524 27.0955 27.3118 26.8682 27.3102 26.6371C27.3102 26.3161 27.2185 26.0295 27.0349 25.7773C26.8514 25.5251 26.6009 25.292 26.2835 25.0781C25.966 24.8641 25.5894 24.6578 25.1534 24.4591C24.687 24.2473 24.2166 24.0447 23.7422 23.8515C22.4573 23.3166 21.4994 22.6631 20.8684 21.8914C20.2373 21.1194 19.9219 20.1871 19.9219 19.0943C19.9219 18.2383 20.094 17.5028 20.4381 16.8876C20.7824 16.2725 21.2508 15.7662 21.8435 15.3687C22.4363 14.9713 23.1228 14.679 23.9029 14.4918C24.6831 14.3046 25.509 14.2109 26.3809 14.2109C27.2376 14.2109 27.9967 14.2625 28.6583 14.3657C29.3198 14.4689 29.9298 14.6274 30.4882 14.8414V18.2689C30.2043 18.0731 29.9028 17.9043 29.5876 17.7646C29.2625 17.6193 28.9269 17.4986 28.5838 17.4035C28.2395 17.3079 27.8973 17.2372 27.5569 17.1914C27.2166 17.1456 26.8935 17.1226 26.5875 17.1226C26.1669 17.1226 25.7844 17.1627 25.4402 17.2429C25.096 17.3233 24.8054 17.4359 24.5683 17.5812C24.3312 17.7264 24.1476 17.9002 24.0175 18.1027C23.8875 18.3053 23.8226 18.5325 23.8226 18.7847C23.8226 19.0599 23.8952 19.3063 24.0405 19.5241C24.1858 19.7419 24.3923 19.9483 24.6601 20.1431C24.9277 20.3381 25.2528 20.5291 25.6352 20.7164C26.0177 20.9036 26.4497 21.0965 26.9316 21.2953C27.5894 21.5703 28.1803 21.8627 28.7042 22.1721C29.228 22.4817 29.6775 22.8313 30.0521 23.2211C30.4236 23.6056 30.716 24.0593 30.9126 24.5565C31.1115 25.0571 31.2109 25.6399 31.2109 26.3047C31.2109 27.2218 31.037 27.9917 30.689 28.6145C30.3409 29.2373 29.8686 29.7418 29.272 30.1277C28.6755 30.5135 27.9813 30.7906 27.1898 30.9587C26.3982 31.1269 25.5626 31.2109 24.6831 31.2109C23.7805 31.2109 22.922 31.1346 22.1074 30.9817C21.2929 30.8288 20.5873 30.5996 19.9907 30.2939ZM18.5938 17.497H13.8765V30.9453H10.1396V17.497H5.44531V14.4766H18.5938V17.497Z" fill="black"/>
</svg>
