<svg width="16" height="16" viewBox="0 0 16 16" fill="none" xmlns="http://www.w3.org/2000/svg">
<path d="M15 11H10.8125L9.40625 12.4375C9.03125 12.8125 8.53125 13 8 13C7.4375 13 6.9375 12.8125 6.5625 12.4375L5.15625 11H1C0.4375 11 0 11.4688 0 12V15C0 15.5625 0.4375 16 1 16H15C15.5312 16 16 15.5625 16 15V12C16 11.4688 15.5312 11 15 11ZM7.28125 11.7188C7.46875 11.9062 7.71875 12 8 12C8.25 12 8.5 11.9062 8.6875 11.7188L12.6875 7.71875C13.0938 7.34375 13.0938 6.6875 12.6875 6.3125C12.3125 5.90625 11.6562 5.90625 11.2812 6.3125L9 8.59375V1C9 0.46875 8.53125 0 8 0C7.4375 0 7 0.46875 7 1V8.59375L4.6875 6.3125C4.3125 5.90625 3.65625 5.90625 3.28125 6.3125C2.875 6.6875 2.875 7.34375 3.28125 7.71875L7.28125 11.7188Z" fill="white"/>
</svg>
